<svg width="1133" xmlns="http://www.w3.org/2000/svg" viewBox="0 0 1133 1597" xmlns:ev="http://www.w3.org/2001/xml-events" xmlns:xlink="http://www.w3.org/1999/xlink" height="1597"><style type="text/css"><![CDATA[
.st2 {fill:#1a6a7e;font-family:宋体;font-size:10pt}
.st1 {fill:#1f6391;font-family:宋体;font-size:10pt}
.st3 {fill:#ffffff;font-family:宋体;font-size:10pt}
]]></style><defs/><g transform="translate(5,5)" id="page1"><rect x="0" width="1123" y="0" height="1587" stroke="#808080" fill="#ffffff"/><path transform="translate(904,241)" d="M0,0L118,0L118,406L0,406L0,0z" stroke="#000000" stroke-dasharray="11,5" id="shape1" fill="#ffffff"/><path transform="translate(189,331)" d="M0,0L647,0L647,203L0,203L0,0z" stroke="#000000" stroke-dasharray="11,5" id="shape2" fill="#ffffff"/><path transform="translate(21.5,234.5)" d="M0,0L118,0L118,421L0,421L0,0z" stroke="#000000" stroke-dasharray="11,5" id="shape3" fill="#ffffff"/><path transform="translate(42.5,696.5)" d="M0,0L992,0L992,170L0,170L0,0z" stroke="#000000" stroke-dasharray="11,5" id="shape4" fill="#ffffff"/><path transform="translate(665,716.5)" d="M0,0L146,0L146,127L0,127L0,0z" stroke="#000000" stroke-dasharray="11,5" id="shape5" fill="#ffffff"/><path transform="translate(420.5,718)" d="M0,0L146,0L146,127L0,127L0,0z" stroke="#000000" stroke-dasharray="11,5" id="shape6" fill="#ffffff"/><path transform="translate(200.5,717)" d="M0,0L146,0L146,127L0,127L0,0z" stroke="#000000" stroke-dasharray="11,5" id="shape7" fill="#ffffff"/><path transform="translate(184,562)" d="M0,0L662,0L662,100L0,100L0,0z" stroke="#000000" stroke-dasharray="11,5" id="shape8" fill="#ffffff"/><path transform="translate(624,352)" d="M0,0L193,0L193,163L0,163L0,0z" stroke="#000000" stroke-dasharray="11,5" id="shape9" fill="#ffffff"/><path transform="translate(421.5,353)" d="M0,0L193,0L193,163L0,163L0,0z" stroke="#000000" stroke-dasharray="11,5" id="shape10" fill="#ffffff"/><path transform="translate(218,353)" d="M0,0L193,0L193,163L0,163L0,0z" stroke="#000000" stroke-dasharray="11,5" id="shape11" fill="#ffffff"/><path transform="translate(189,195)" d="M0,0L647,0L647,94L0,94L0,0z" stroke="#000000" stroke-dasharray="11,5" id="shape12" fill="#ffffff"/><path transform="translate(250,57.5)" d="M0,0L520,0L520,95L0,95L0,0z" stroke="#000000" stroke-dasharray="11,5" id="shape13" fill="#ffffff"/><g transform="translate(295,77)" id="shape14"><path d="M94,56L94,0L0,0L0,56L94,56z" stroke="#83b3e3" fill="#e8eff8"/><text class="st1"><tspan x="30" y="25">nginx</tspan><tspan x="21" y="40">负载均衡</tspan></text></g><g transform="translate(457,77)" id="shape15"><path d="M94,56L94,0L0,0L0,56L94,56z" stroke="#81bace" fill="#e8f0f4"/><text class="st2"><tspan x="30" y="25">nginx</tspan><tspan x="21" y="40">负载均衡</tspan></text></g><g transform="translate(631,77)" id="shape16"><path d="M94,56L94,0L0,0L0,56L94,56z" stroke="#81bace" fill="#e8f0f4"/><text class="st2"><tspan x="30" y="25">nginx</tspan><tspan x="21" y="40">负载均衡</tspan></text></g><g transform="translate(250,214)" id="shape17"><path d="M142,56L142,0L0,0L0,56L142,56z" stroke="#3498db" fill="#3498db"/><text class="st3"><tspan x="31" y="32.5">zuul服务网关</tspan></text></g><g transform="translate(430,214)" id="shape18"><path d="M142,56L142,0L0,0L0,56L142,56z" stroke="#3498db" fill="#3498db"/><text class="st3"><tspan x="31" y="32.5">zuul服务网关</tspan></text></g><g transform="translate(619,214)" id="shape19"><path d="M142,56L142,0L0,0L0,56L142,56z" stroke="#3498db" fill="#3498db"/><text class="st3"><tspan x="31" y="32.5">zuul服务网关</tspan></text></g><g transform="translate(225,389)" id="shape20"><path d="M165.7,30C171.9,30,177,24.9,177,18.7L177,11.3C177,5.1,171.9,0,165.7,0L11.3,0C5.1,0,0,5.1,0,11.3L0,18.7C0,24.9,5.1,30,11.3,30L165.7,30z" stroke="#ee7c31" fill="#ee7c31"/><text class="st3"><tspan x="57" y="19.5">Service A</tspan></text></g><g transform="translate(225,430)" id="shape21"><path d="M165.7,30C171.9,30,177,24.9,177,18.7L177,11.3C177,5.1,171.9,0,165.7,0L11.3,0C5.1,0,0,5.1,0,11.3L0,18.7C0,24.9,5.1,30,11.3,30L165.7,30z" stroke="#ee7c31" fill="#ee7c31"/><text class="st3"><tspan x="57" y="19.5">Service A</tspan></text></g><g transform="translate(225,471)" id="shape22"><path d="M165.7,30C171.9,30,177,24.9,177,18.7L177,11.3C177,5.1,171.9,0,165.7,0L11.3,0C5.1,0,0,5.1,0,11.3L0,18.7C0,24.9,5.1,30,11.3,30L165.7,30z" stroke="#ee7c31" fill="#ee7c31"/><text class="st3"><tspan x="57" y="19.5">Service A</tspan></text></g><g transform="translate(426.5,389)" id="shape23"><path d="M165.7,30C171.9,30,177,24.9,177,18.7L177,11.3C177,5.1,171.9,0,165.7,0L11.3,0C5.1,0,0,5.1,0,11.3L0,18.7C0,24.9,5.1,30,11.3,30L165.7,30z" stroke="#ee7c31" fill="#ee7c31"/><text class="st3"><tspan x="57" y="19.5">Service B</tspan></text></g><g transform="translate(428.5,430)" id="shape24"><path d="M165.7,30C171.9,30,177,24.9,177,18.7L177,11.3C177,5.1,171.9,0,165.7,0L11.3,0C5.1,0,0,5.1,0,11.3L0,18.7C0,24.9,5.1,30,11.3,30L165.7,30z" stroke="#ee7c31" fill="#ee7c31"/><text class="st3"><tspan x="57" y="19.5">Service B</tspan></text></g><g transform="translate(430.5,471)" id="shape25"><path d="M165.7,30C171.9,30,177,24.9,177,18.7L177,11.3C177,5.1,171.9,0,165.7,0L11.3,0C5.1,0,0,5.1,0,11.3L0,18.7C0,24.9,5.1,30,11.3,30L165.7,30z" stroke="#ee7c31" fill="#ee7c31"/><text class="st3"><tspan x="57" y="19.5">Service B</tspan></text></g><g transform="translate(632,386)" id="shape26"><path d="M165.7,30C171.9,30,177,24.9,177,18.7L177,11.3C177,5.1,171.9,0,165.7,0L11.3,0C5.1,0,0,5.1,0,11.3L0,18.7C0,24.9,5.1,30,11.3,30L165.7,30z" stroke="#ee7c31" fill="#ee7c31"/><text class="st3"><tspan x="57" y="19.5">Service C</tspan></text></g><g transform="translate(632,427)" id="shape27"><path d="M165.7,30C171.9,30,177,24.9,177,18.7L177,11.3C177,5.1,171.9,0,165.7,0L11.3,0C5.1,0,0,5.1,0,11.3L0,18.7C0,24.9,5.1,30,11.3,30L165.7,30z" stroke="#ee7c31" fill="#ee7c31"/><text class="st3"><tspan x="57" y="19.5">Service C</tspan></text></g><g transform="translate(632,468)" id="shape28"><path d="M165.7,30C171.9,30,177,24.9,177,18.7L177,11.3C177,5.1,171.9,0,165.7,0L11.3,0C5.1,0,0,5.1,0,11.3L0,18.7C0,24.9,5.1,30,11.3,30L165.7,30z" stroke="#ee7c31" fill="#ee7c31"/><text class="st3"><tspan x="57" y="19.5">Service C</tspan></text></g><g transform="translate(255,358)" id="shape29"><text class="st1"><tspan x="25" y="16.5">业务服务群</tspan></text></g><g transform="translate(459,361)" id="shape30"><text class="st1"><tspan x="31" y="16">业务服务群</tspan></text></g><g transform="translate(662,358)" id="shape31"><text class="st1"><tspan x="23.4" y="17.5">业务服务群</tspan></text></g><g transform="translate(38,286)" id="shape32"><text class="st1"><tspan x="13" y="26">监控&amp;保护</tspan></text></g><g transform="translate(42.5,333)" id="shape33"><path d="M76,76L76,0L0,0L0,76L76,76z" stroke="#1bbc9d" fill="#1bbc9d"/><text class="st3"><tspan x="17" y="35">Sleuth</tspan><tspan x="12" y="50">链路跟踪</tspan></text></g><g transform="translate(42.5,429)" id="shape34"><path d="M76,76L76,0L0,0L0,76L76,76z" stroke="#1bbc9d" fill="#1bbc9d"/><text class="st3"><tspan x="14" y="35">Turbine</tspan><tspan x="12" y="50">集群监控</tspan></text></g><g transform="translate(42.5,525)" id="shape35"><path d="M76,76L76,0L0,0L0,76L76,76z" stroke="#1bbc9d" fill="#1bbc9d"/><text class="st3"><tspan x="14" y="35">Hystrix</tspan><tspan x="12" y="50">容错保护</tspan></text></g><g transform="translate(927,331)" id="shape36"><path d="M76,76L76,0L0,0L0,76L76,76z" stroke="#ffaf00" fill="#ffaf00"/><text class="st3"><tspan x="17" y="35">consul</tspan><tspan x="12" y="50">服务治理</tspan></text></g><g transform="translate(927,427)" id="shape37"><path d="M76,76L76,0L0,0L0,76L76,76z" stroke="#ffaf00" fill="#ffaf00"/><text class="st3"><tspan x="17" y="35">eureka</tspan><tspan x="12" y="50">服务治理</tspan></text></g><g transform="translate(925,525)" id="shape38"><path d="M76,76L76,0L0,0L0,76L76,76z" stroke="#ffaf00" fill="#ffaf00"/><text class="st3"><tspan x="17" y="35">config</tspan><tspan x="12" y="50">配置管理</tspan></text></g><g transform="translate(214.75,587)" id="shape39"><path d="M22,44L130,44C142.2,44,152,34.2,152,22C152,9.8,142.2,0,130,0L22,0C9.8,0,0,9.8,0,22C0,34.2,9.8,44,22,44z" stroke="#dd7195" fill="#dd7195"/><text class="st3"><tspan x="20" y="19">spring cloud bus</tspan><tspan x="50" y="34">消息总线</tspan></text></g><g transform="translate(434,587)" id="shape40"><path d="M22,44L130,44C142.2,44,152,34.2,152,22C152,9.8,142.2,0,130,0L22,0C9.8,0,0,9.8,0,22C0,34.2,9.8,44,22,44z" stroke="#dd7195" fill="#dd7195"/><text class="st3"><tspan x="20" y="19">spring cloud bus</tspan><tspan x="50" y="34">消息总线</tspan></text></g><g transform="translate(660,585)" id="shape41"><path d="M22,44L130,44C142.2,44,152,34.2,152,22C152,9.8,142.2,0,130,0L22,0C9.8,0,0,9.8,0,22C0,34.2,9.8,44,22,44z" stroke="#dd7195" fill="#dd7195"/><text class="st3"><tspan x="20" y="19">spring cloud bus</tspan><tspan x="50" y="34">消息总线</tspan></text></g><g transform="translate(225,752.5)"><path transform="translate(19.1,27.72)" d="M3.8,1.1C3.6,.8,3.4,.6,3.2,.3C2.9,.2,2.6,0,2.3,0C1.9,0,1.6,.2,1.3,.3C1,.5,.9,.8,.6,.9C.4,1.2,.3,1.5,0,1.8C0,2.1,0,2.6,0,3C0,3.6,0,4.1,0,4.4C.3,4.8,.4,5.1,.6,5.3C.7,5.6,1,5.7,1.3,5.7C1.6,5.9,1.9,5.9,2.2,5.9C2.5,5.9,2.8,5.9,2.9,5.7C3.2,5.6,3.4,5.4,3.6,5.1C3.8,4.8,3.9,4.5,4.1,4.2C4.2,3.9,4.2,3.5,4.2,2.9C4.2,2.4,4.2,2.1,4.1,1.7C4.1,1.7,3.9,1.4,3.8,1.1z" stroke="#476482" id="shape42" fill="#476482"/><path d="M21,0C9.3,0,0,4.1,0,8.6L0,49.3C0,53.8,9.5,58,21,58C32.7,58,42,53.9,42,49.4L42,8.7C42.1,4.2,32.7,0,21,0zM14.7,34C14.7,34.3,14.6,34.6,14.4,35C14.3,35.3,14.1,35.6,13.9,35.7C13.6,36,13.3,36.2,13,36.3C12.7,36.5,12.2,36.6,11.7,36.8C11.2,36.9,10.6,36.9,9.9,36.9C9.6,36.9,9.2,36.9,8.9,36.9C8.6,36.9,8.3,36.9,8,36.8C7.7,36.8,7.4,36.6,7.3,36.6C7,36.6,6.9,36.5,6.7,36.3L6.7,33.1C6.9,33.3,7.1,33.4,7.4,33.6C7.7,33.7,7.9,33.9,8.2,34C8.5,34.2,8.7,34.2,9,34.3C9.3,34.5,9.6,34.5,9.9,34.5C10.2,34.5,10.4,34.5,10.5,34.3C10.6,34.3,10.8,34.2,10.8,34.2C10.9,34.2,10.9,34,10.9,33.9C10.9,33.7,10.9,33.7,10.9,33.6C10.9,33.4,10.9,33.3,10.8,33.1C10.6,33,10.6,32.8,10.5,32.8C10.4,32.7,10.2,32.7,9.9,32.5C9.6,32.4,9.5,32.4,9.2,32.2C8.7,32.1,8.3,31.8,7.9,31.5C7.6,31.2,7.3,31,7,30.7C6.7,30.4,6.6,30.1,6.6,29.8C6.4,29.5,6.4,29.1,6.4,28.8C6.4,28.2,6.6,27.7,6.7,27.3C7,26.8,7.3,26.4,7.6,26.1C8,25.8,8.5,25.5,9,25.3C9.6,25.2,10.2,25,10.9,25C11.4,25,11.7,25,12,25C12.2,25,12.5,25,12.8,25.2C13.1,25.2,13.3,25.3,13.6,25.3C13.9,25.3,14,25.5,14.1,25.5L14.1,28.5C14,28.3,13.9,28.3,13.6,28.2C13.4,28,13.1,28,12.8,27.9C12.5,27.7,12.4,27.7,12.1,27.7C11.8,27.7,11.5,27.7,11.2,27.7C10.8,27.7,10.5,27.7,10.4,27.9C10.1,28,10.1,28.2,10.1,28.5C10.1,28.6,10.1,28.8,10.2,28.8C10.2,28.9,10.4,28.9,10.5,29.1C10.6,29.2,10.8,29.2,10.9,29.4C11.1,29.5,11.4,29.5,11.7,29.7C12.1,29.8,12.5,30.1,13,30.3C13.4,30.6,13.7,30.7,14,31C14.3,31.3,14.4,31.6,14.7,31.9C14.9,32.2,15,32.7,15,33.3C14.9,33.4,14.7,33.7,14.7,34zM23.3,39.8L20.9,37.1C20.1,37.1,19.4,36.8,18.8,36.6C18.2,36.3,17.6,35.9,17.2,35.4C16.8,35,16.3,34.3,16,33.6C15.7,32.8,15.6,32.1,15.6,31.2C15.6,30.3,15.7,29.4,16,28.6C16.3,27.9,16.8,27.3,17.2,26.7C17.6,26.1,18.4,25.8,19,25.5C19.7,25.2,20.4,25,21.3,25C22.2,25,22.9,25.2,23.5,25.5C24.2,25.8,24.8,26.2,25.2,26.7C25.7,27.1,26.1,27.9,26.4,28.5C26.7,29.2,26.8,30,26.8,31C26.8,31.6,26.8,32.4,26.5,32.8C26.4,33.4,26.1,33.9,25.8,34.3C25.5,34.8,25.2,35.3,24.8,35.6C24.4,35.9,24.1,36.2,23.5,36.5L27.3,39.8L23.3,39.8zM35.9,36.8L28.6,36.8L28.6,25.2L31.9,25.2L31.9,34L35.9,34L35.9,36.8zM21,12.7C12.7,12.7,6,10.5,6,8C6,5.4,12.7,3.3,21,3.3C29.3,3.3,36,5.4,36,8C36,10.5,29.3,12.7,21,12.7z" stroke="#476482" id="shape43" fill="#476482"/></g><g transform="translate(281,752.5)"><path transform="translate(19.1,27.72)" d="M3.8,1.1C3.6,.8,3.4,.6,3.2,.3C2.9,.2,2.6,0,2.3,0C1.9,0,1.6,.2,1.3,.3C1,.5,.9,.8,.6,.9C.4,1.2,.3,1.5,0,1.8C0,2.1,0,2.6,0,3C0,3.6,0,4.1,0,4.4C.3,4.8,.4,5.1,.6,5.3C.7,5.6,1,5.7,1.3,5.7C1.6,5.9,1.9,5.9,2.2,5.9C2.5,5.9,2.8,5.9,2.9,5.7C3.2,5.6,3.4,5.4,3.6,5.1C3.8,4.8,3.9,4.5,4.1,4.2C4.2,3.9,4.2,3.5,4.2,2.9C4.2,2.4,4.2,2.1,4.1,1.7C4.1,1.7,3.9,1.4,3.8,1.1z" stroke="#476482" id="shape44" fill="#476482"/><path d="M21,0C9.3,0,0,4.1,0,8.6L0,49.3C0,53.8,9.5,58,21,58C32.7,58,42,53.9,42,49.4L42,8.7C42.1,4.2,32.7,0,21,0zM14.7,34C14.7,34.3,14.6,34.6,14.4,35C14.3,35.3,14.1,35.6,13.9,35.7C13.6,36,13.3,36.2,13,36.3C12.7,36.5,12.2,36.6,11.7,36.8C11.2,36.9,10.6,36.9,9.9,36.9C9.6,36.9,9.2,36.9,8.9,36.9C8.6,36.9,8.3,36.9,8,36.8C7.7,36.8,7.4,36.6,7.3,36.6C7,36.6,6.9,36.5,6.7,36.3L6.7,33.1C6.9,33.3,7.1,33.4,7.4,33.6C7.7,33.7,7.9,33.9,8.2,34C8.5,34.2,8.7,34.2,9,34.3C9.3,34.5,9.6,34.5,9.9,34.5C10.2,34.5,10.4,34.5,10.5,34.3C10.6,34.3,10.8,34.2,10.8,34.2C10.9,34.2,10.9,34,10.9,33.9C10.9,33.7,10.9,33.7,10.9,33.6C10.9,33.4,10.9,33.3,10.8,33.1C10.6,33,10.6,32.8,10.5,32.8C10.4,32.7,10.2,32.7,9.9,32.5C9.6,32.4,9.5,32.4,9.2,32.2C8.7,32.1,8.3,31.8,7.9,31.5C7.6,31.2,7.3,31,7,30.7C6.7,30.4,6.6,30.1,6.6,29.8C6.4,29.5,6.4,29.1,6.4,28.8C6.4,28.2,6.6,27.7,6.7,27.3C7,26.8,7.3,26.4,7.6,26.1C8,25.8,8.5,25.5,9,25.3C9.6,25.2,10.2,25,10.9,25C11.4,25,11.7,25,12,25C12.2,25,12.5,25,12.8,25.2C13.1,25.2,13.3,25.3,13.6,25.3C13.9,25.3,14,25.5,14.1,25.5L14.1,28.5C14,28.3,13.9,28.3,13.6,28.2C13.4,28,13.1,28,12.8,27.9C12.5,27.7,12.4,27.7,12.1,27.7C11.8,27.7,11.5,27.7,11.2,27.7C10.8,27.7,10.5,27.7,10.4,27.9C10.1,28,10.1,28.2,10.1,28.5C10.1,28.6,10.1,28.8,10.2,28.8C10.2,28.9,10.4,28.9,10.5,29.1C10.6,29.2,10.8,29.2,10.9,29.4C11.1,29.5,11.4,29.5,11.7,29.7C12.1,29.8,12.5,30.1,13,30.3C13.4,30.6,13.7,30.7,14,31C14.3,31.3,14.4,31.6,14.7,31.9C14.9,32.2,15,32.7,15,33.3C14.9,33.4,14.7,33.7,14.7,34zM23.3,39.8L20.9,37.1C20.1,37.1,19.4,36.8,18.8,36.6C18.2,36.3,17.6,35.9,17.2,35.4C16.8,35,16.3,34.3,16,33.6C15.7,32.8,15.6,32.1,15.6,31.2C15.6,30.3,15.7,29.4,16,28.6C16.3,27.9,16.8,27.3,17.2,26.7C17.6,26.1,18.4,25.8,19,25.5C19.7,25.2,20.4,25,21.3,25C22.2,25,22.9,25.2,23.5,25.5C24.2,25.8,24.8,26.2,25.2,26.7C25.7,27.1,26.1,27.9,26.4,28.5C26.7,29.2,26.8,30,26.8,31C26.8,31.6,26.8,32.4,26.5,32.8C26.4,33.4,26.1,33.9,25.8,34.3C25.5,34.8,25.2,35.3,24.8,35.6C24.4,35.9,24.1,36.2,23.5,36.5L27.3,39.8L23.3,39.8zM35.9,36.8L28.6,36.8L28.6,25.2L31.9,25.2L31.9,34L35.9,34L35.9,36.8zM21,12.7C12.7,12.7,6,10.5,6,8C6,5.4,12.7,3.3,21,3.3C29.3,3.3,36,5.4,36,8C36,10.5,29.3,12.7,21,12.7z" stroke="#476482" id="shape45" fill="#476482"/></g><g transform="translate(450,761.5)"><path d="M0,20C0,9,9,0,20,0C31.1,0,40,9,40,20C40,31.1,31.1,40,20,40C9,40,0,31.1,0,20z" stroke="#527294" id="shape46" fill="#527294"/><path transform="translate(4.79,7.2)" d="M15.2,0C7.7,0,0,1.7,0,4.9C0,20.7,0,20.7,0,20.7C0,23.9,7.7,25.6,15.2,25.6C22.8,25.6,30.4,23.9,30.4,20.7C30.4,4.9,30.4,4.9,30.4,4.9C30.4,1.7,22.8,0,15.2,0zM15.2,2C23.3,2,28.3,3.9,28.3,4.9C28.3,6,23.6,7.9,15.2,7.9C6.8,7.9,2.2,6,2.2,4.9C2.2,3.9,7.1,2,15.2,2zM15.2,23.7C6.8,23.7,2.2,21.7,2.2,20.7C2.2,7.6,2.2,7.6,2.2,7.6C5,9.1,10.2,9.9,15.2,9.9C20.3,9.9,25.5,9.1,28.3,7.6C28.3,20.7,28.3,20.7,28.3,20.7C28.3,21.7,23.6,23.7,15.2,23.7z" id="shape47" fill="#ffffff"/></g><g transform="translate(505,761.5)"><path d="M0,20C0,9,9,0,20,0C31.1,0,40,9,40,20C40,31.1,31.1,40,20,40C9,40,0,31.1,0,20z" stroke="#527294" id="shape48" fill="#527294"/><path transform="translate(4.79,7.2)" d="M15.2,0C7.7,0,0,1.7,0,4.9C0,20.7,0,20.7,0,20.7C0,23.9,7.7,25.6,15.2,25.6C22.8,25.6,30.4,23.9,30.4,20.7C30.4,4.9,30.4,4.9,30.4,4.9C30.4,1.7,22.8,0,15.2,0zM15.2,2C23.3,2,28.3,3.9,28.3,4.9C28.3,6,23.6,7.9,15.2,7.9C6.8,7.9,2.2,6,2.2,4.9C2.2,3.9,7.1,2,15.2,2zM15.2,23.7C6.8,23.7,2.2,21.7,2.2,20.7C2.2,7.6,2.2,7.6,2.2,7.6C5,9.1,10.2,9.9,15.2,9.9C20.3,9.9,25.5,9.1,28.3,7.6C28.3,20.7,28.3,20.7,28.3,20.7C28.3,21.7,23.6,23.7,15.2,23.7z" id="shape49" fill="#ffffff"/></g><g transform="translate(690,745)" id="shape50"><path d="M0,3.8L0,60.2C-0,62.3,8.5,64,19,64C29.5,64,38,62.3,38,60.2L38,3.8C38,1.7,29.5,0,19,0C8.5,0,0,1.7,0,3.8z" fill="#527294"/><path stroke="#527294" d="M0,3.8L0,60.2C-0,62.3,8.5,64,19,64C29.5,64,38,62.3,38,60.2L38,3.8C38,1.7,29.5,0,19,0C8.5,0,0,1.7,0,3.8zM0,3.8C0,5.9,8.5,7.6,19,7.6C29.5,7.6,38,5.9,38,3.8" fill="none"/><text class="st3"><tspan x="9" y="36.5">git</tspan></text></g><g transform="translate(746,745)" id="shape51"><path d="M0,3.8L0,60.2C-0,62.3,8.5,64,19,64C29.5,64,38,62.3,38,60.2L38,3.8C38,1.7,29.5,0,19,0C8.5,0,0,1.7,0,3.8z" fill="#527294"/><path stroke="#527294" d="M0,3.8L0,60.2C-0,62.3,8.5,64,19,64C29.5,64,38,62.3,38,60.2L38,3.8C38,1.7,29.5,0,19,0C8.5,0,0,1.7,0,3.8zM0,3.8C0,5.9,8.5,7.6,19,7.6C29.5,7.6,38,5.9,38,3.8" fill="none"/><text class="st3"><tspan x="9" y="36.5">git</tspan></text></g><g transform="translate(439,733)" id="shape52"><text class="st1"><tspan x="24" y="18.5">MQ</tspan></text></g><g transform="translate(494,733)" id="shape53"><text class="st1"><tspan x="24" y="18.5">MQ</tspan></text></g><g transform="translate(224,723)" id="shape54"><text class="st1"><tspan x="15" y="16.5">SQL Server</tspan></text></g><g transform="translate(74,743)" id="shape55"><text class="st1"><tspan x="35" y="37.5">数据层</tspan></text></g><g transform="translate(904,286)" id="shape56"><text class="st1"><tspan x="21" y="19">治理&amp;配置</tspan></text></g><path transform="translate(488,289)" d="M27.7,0L27.7,23.2L44,19.3L22,40L0,19.3L16.3,23.2L16.3,0L27.7,0z" stroke="#2da2bf" id="shape57" fill="#2da2bf"/><path transform="translate(276.75,286)" d="M7,38.3L7,6.8L0,6.8L14,0L28,6.8L21,6.8L21,38.3L28,38.3L14,45L0,38.3L7,38.3z" stroke="#3498db" id="shape58" fill="#3498db"/><path transform="translate(685,284)" d="M7,38.3L7,6.8L0,6.8L14,0L28,6.8L21,6.8L21,38.3L28,38.3L14,45L0,38.3L7,38.3z" stroke="#3498db" id="shape59" fill="#3498db"/><path transform="translate(488,155)" d="M27.7,0L27.7,23.2L44,19.3L22,40L0,19.3L16.3,23.2L16.3,0L27.7,0z" stroke="#2da2bf" id="shape60" fill="#2da2bf"/><path transform="translate(141.38,438)" d="M13.2,5.5L36.5,5.5L36.5,0L49.8,11L36.5,22L36.5,16.5L13.2,16.5L13.2,22L0,11L13.2,0L13.2,5.5z" stroke="#2da2bf" id="shape61" fill="#2da2bf"/><path transform="translate(835.63,427)" d="M13.2,5.5L49.2,5.5L49.2,0L62.4,11L49.2,22L49.2,16.5L13.2,16.5L13.2,22L0,11L13.2,0L13.2,5.5z" stroke="#2da2bf" id="shape62" fill="#2da2bf"/><path transform="translate(490.5,535)" d="M27.7,0L27.7,18.6L44,15.5L22,32L0,15.5L16.3,18.6L16.3,0L27.7,0z" stroke="#2da2bf" id="shape63" fill="#2da2bf"/><path transform="translate(58.5,657)" d="M27.7,0L27.7,18.6L44,15.5L22,32L0,15.5L16.3,18.6L16.3,0L27.7,0z" stroke="#2da2bf" id="shape64" fill="#2da2bf"/><path transform="translate(943,652)" d="M27.7,0L27.7,24.4L44,20.3L22,42L0,20.3L16.3,24.4L16.3,0L27.7,0z" stroke="#2da2bf" id="shape65" fill="#2da2bf"/><path transform="translate(488,666)" d="M27.7,0L27.7,18.6L44,15.5L22,32L0,15.5L16.3,18.6L16.3,0L27.7,0z" stroke="#2da2bf" id="shape66" fill="#2da2bf"/></g></svg>