<svg xmlns="http://www.w3.org/2000/svg" height="1597" viewBox="0 0 1133 1597" xmlns:ev="http://www.w3.org/2001/xml-events" width="1133" xmlns:xlink="http://www.w3.org/1999/xlink"><style type="text/css"><![CDATA[
.st2 {fill:#1f6391;font-family:宋体;font-size:10pt}
.st1 {fill:#ffffff;font-family:宋体;font-size:10pt}
]]></style><defs/><g id="page1" transform="translate(5,5)"><rect height="1587" fill="#ffffff" y="0" width="1123" x="0" stroke="#808080"/><g transform="translate(652,338.5)"><path id="shape1" fill="#3498db" d="M99,58L99,0L0,0L0,58L99,58z" stroke="#3498db"/><text class="st1"><tspan y="26" x="25">erueka-</tspan><tspan y="41" x="29">server</tspan></text></g><g transform="translate(468,468)"><path id="shape2" fill="#3498db" d="M94,56L94,0L0,0L0,56L94,56z" stroke="#3498db"/><text class="st1"><tspan y="32.5" x="23">service</tspan></text></g><g transform="translate(468,338.5)"><path id="shape3" fill="#3498db" d="M47,56L94,28L47,0L0,28L47,56z" stroke="#3498db"/><text class="st1"><tspan y="32.5" x="8">该服务已注册</tspan></text></g><g transform="translate(326,580.75)"><path id="shape4" fill="#3498db" d="M-14,56L80,56L108,0L14,0L-14,56z" stroke="#3498db"/><text class="st1"><tspan y="32.5" x="30">redis</tspan></text></g><g transform="translate(732,580.75)"><path id="shape5" fill="#3498db" d="M-14,56L80,56L108,0L14,0L-14,56z" stroke="#3498db"/><text class="st1"><tspan y="32.5" x="30">mysql</tspan></text></g><g transform="translate(468,868)"><path id="shape6" fill="#3498db" d="M20,40L74,40C85,40,94,31,94,20C94,9,85,0,74,0L20,0C9,0,0,9,0,20C0,31,9,40,20,40z" stroke="#3498db"/><text class="st1"><tspan y="24.5" x="34">结束</tspan></text></g><g id="shape7" transform="matrix(0,1,-1,0,515,394.5)"><path fill="none" d="M0,0L69.1,0" stroke="#236ea1"/><path fill="#236ea1" stroke-width="1" d="M73.5,0L68.3,-3C68.8,-2.1,69.1,-1.1,69.1,0C69.1,1.1,68.8,2.1,68.3,3L73.5,0" stroke="#236ea1" stroke-linecap="round"/></g><g transform="translate(468,209)"><path id="shape8" fill="#3498db" d="M94,56L94,0L0,0L0,56L94,56z" stroke="#3498db"/><text class="st1"><tspan y="32.5" x="8">其他项目接口</tspan></text></g><g transform="translate(458.5,580.75)"><path id="shape9" fill="#3498db" d="M56.5,56L113,28L56.5,0L0,28L56.5,56z" stroke="#3498db"/><text class="st1"><tspan y="32.5" x="20">redis有数据</tspan></text></g><g id="shape10" transform="translate(468,496)"><path fill="none" d="M0,0L-95,0L-95,80.4" stroke="#236ea1"/><path fill="#236ea1" stroke-width="1" d="M-95,84.8L-92,79.6C-92.9,80.1,-93.9,80.4,-95,80.4C-96.1,80.4,-97.1,80.1,-98,79.6L-95,84.8" stroke="#236ea1" stroke-linecap="round"/></g><g id="shape11" transform="translate(420,608.75)"><path fill="none" d="M0,0L34.1,0" stroke="#236ea1"/><path fill="#236ea1" stroke-width="1" d="M38.5,0L33.3,-3C33.8,-2.1,34.1,-1.1,34.1,0C34.1,1.1,33.8,2.1,33.3,3L38.5,0" stroke="#236ea1" stroke-linecap="round"/></g><g id="shape12" transform="translate(571.5,608.75)"><path fill="none" d="M0,0L156.1,0" stroke="#236ea1"/><path fill="#236ea1" stroke-width="1" d="M160.5,0L155.3,-3C155.8,-2.1,156.1,-1.1,156.1,0C156.1,1.1,155.8,2.1,155.3,3L160.5,0" stroke="#236ea1" stroke-linecap="round"/></g><g id="shape13" transform="matrix(0,1,-1,0,515,636.8)"><path fill="none" d="M0,0L226.9,0" stroke="#236ea1"/><path fill="#236ea1" stroke-width="1" d="M231.3,0L226.1,-3C226.6,-2.1,226.9,-1.1,226.9,0C226.9,1.1,226.6,2.1,226.1,3L231.3,0" stroke="#236ea1" stroke-linecap="round"/></g><g id="shape14" transform="translate(432.5,282.75)"><text class="st2"><tspan y="23.5" x="29">发送请求</tspan></text></g><g id="shape15" transform="translate(468,366.5)"><path fill="none" d="M0,0L-189,0L-189,521.5L-4.4,521.5" stroke="#236ea1"/><path fill="#236ea1" stroke-width="1" d="M0,521.5L-5.2,518.5C-4.7,519.4,-4.4,520.4,-4.4,521.5C-4.4,522.6,-4.7,523.6,-5.2,524.5L0,521.5" stroke="#236ea1" stroke-linecap="round"/></g><g id="shape16" transform="translate(496,417.25)"><text class="st2"><tspan y="18.5" x="37">yes</tspan></text></g><g id="shape17" transform="translate(356,338.5)"><text class="st2"><tspan y="23.5" x="57">no</tspan></text></g><g id="shape18" transform="translate(369,468)"><text class="st2"><tspan y="8.5" x="5">先到redis</tspan><tspan y="23.5" x="9">查找数据</tspan></text></g><g id="shape19" transform="translate(510,643)"><text class="st2"><tspan y="18.5" x="9">yes</tspan></text></g><g id="shape20" transform="translate(557,576)"><text class="st2"><tspan y="20.9" x="22">no</tspan></text></g><g id="shape21" transform="translate(435,805.5)"><text class="st2"><tspan y="13.5" x="8">返回查询到</tspan><tspan y="28.5" x="21">的数据</tspan></text></g><g id="shape22" transform="translate(586,619)"><text class="st2"><tspan y="16.5" x="9">到mysql查询数据</tspan></text></g><g transform="translate(732,719)"><path id="shape23" fill="#3498db" d="M47,56L94,28L47,0L0,28L47,56z" stroke="#3498db"/><text class="st1"><tspan y="32.5" x="10">mysql有数据</tspan></text></g><g id="shape24" transform="matrix(0,1,-1,0,779,636.8)"><path fill="none" d="M0,0L77.9,0" stroke="#236ea1"/><path fill="#236ea1" stroke-width="1" d="M82.3,0L77.1,-3C77.6,-2.1,77.9,-1.1,77.9,0C77.9,1.1,77.6,2.1,77.1,3L82.3,0" stroke="#236ea1" stroke-linecap="round"/></g><g id="shape25" transform="translate(779,775)"><path fill="none" d="M0,0L0,113L-212.6,113" stroke="#236ea1"/><path fill="#236ea1" stroke-width="1" d="M-217,113L-211.8,116C-212.3,115.1,-212.6,114.1,-212.6,113C-212.6,111.9,-212.3,110.9,-211.8,110L-217,113" stroke="#236ea1" stroke-linecap="round"/></g><g id="shape26" transform="translate(732,747)"><path fill="none" d="M0,0L-359,0L-359,-105.9" stroke="#236ea1"/><path fill="#236ea1" stroke-width="1" d="M-359,-110.3L-362,-105.1C-361.1,-105.6,-360.1,-105.9,-359,-105.9C-357.9,-105.9,-356.9,-105.6,-356,-105.1L-359,-110.3" stroke="#236ea1" stroke-linecap="round"/></g><g id="shape27" transform="translate(609,723)"><text class="st2"><tspan y="16" x="14">yes</tspan></text></g><g id="shape28" transform="translate(633,860)"><text class="st2"><tspan y="16" x="24">no</tspan></text></g><g id="shape29" transform="translate(189,417.25)"><text class="st2"><tspan y="52" x="26">返回404</tspan></text></g><g id="shape30" transform="translate(378,676)"><text class="st2"><tspan y="23" x="8">将数据保存</tspan><tspan y="38" x="16">到redis</tspan></text></g><g id="shape31" transform="translate(619,879)"><text class="st2"><tspan y="28" x="22">返回没查询到数据</tspan></text></g><g id="shape32" transform="matrix(0,1,-1,0,515,265)"><path fill="none" d="M0,0L69.1,0" stroke="#236ea1"/><path fill="#236ea1" stroke-width="1" d="M73.5,0L68.3,-3C68.8,-2.1,69.1,-1.1,69.1,0C69.1,1.1,68.8,2.1,68.3,3L73.5,0" stroke="#236ea1" stroke-linecap="round"/></g><g id="shape33" transform="translate(562,496)"><path fill="none" d="M0,0L139.5,0L139.5,-95.1" stroke="#236ea1"/><path fill="#236ea1" stroke-width="1" d="M139.5,-99.5L136.5,-94.3C137.4,-94.8,138.4,-95.1,139.5,-95.1C140.6,-95.1,141.6,-94.8,142.5,-94.3L139.5,-99.5" stroke="#236ea1" stroke-linecap="round"/></g><g id="shape34" transform="translate(609,468)"><text class="st2"><tspan y="8.5" x="8">通过注册中</tspan><tspan y="23.5" x="8">心暴露接口</tspan></text></g></g></svg>